<svg version="1.2" xmlns="http://www.w3.org/2000/svg" viewBox="0 0 19 18" width="19" height="18">
	<title>Icon fa-solid-bath</title>
	<style>
		.s0 { fill: #094e69 } 
	</style>
	<path id="Icon fa-solid-bath" class="s0" d="m3.6 2.7c0-0.2 0.2-0.4 0.5-0.4q0.2 0 0.3 0.1l0.5 0.5q-0.2 0.5-0.2 1.1c0 0.6 0.3 1.3 0.7 1.8-0.2 0.3-0.1 0.7 0.1 1 0.4 0.3 0.9 0.3 1.2 0l3.7-3.7c0.3-0.3 0.3-0.8 0-1.1-0.3-0.3-0.7-0.4-1-0.2-0.5-0.4-1.2-0.7-1.9-0.7q-0.5 0-1 0.2l-0.5-0.5c-0.5-0.5-1.2-0.8-1.9-0.8-1.5 0-2.7 1.2-2.7 2.7v6.3c-0.7 0-1.2 0.5-1.2 1.1 0 0.7 0.5 1.2 1.2 1.2h15.7c0.6 0 1.1-0.5 1.1-1.2 0-0.6-0.5-1.1-1.1-1.1h-13.5zm-2.2 9.7v0.5c0 1 0.4 1.9 1.1 2.5v1.4c0 0.7 0.5 1.2 1.1 1.2 0.6 0 1.1-0.5 1.1-1.2v-0.5h9v0.5c0 0.7 0.5 1.2 1.1 1.2 0.7 0 1.2-0.5 1.2-1.2v-1.4c0.7-0.6 1.1-1.5 1.1-2.5v-0.5z"/>
</svg>