<svg version="1.2" xmlns="http://www.w3.org/2000/svg" viewBox="0 0 21 16" width="21" height="16">
	<title>Group 37597</title>
	<style>
		.s0 { fill: #094e69 } 
	</style>
	<g id="Group 37597">
		<path id="Path 41522" fill-rule="evenodd" class="s0" d="m1.7 14v1.7h-0.7v-5.9h2.3q-0.3-1.1-0.6-2.1h1.3q-2-0.7-2-2.4c0.6-0.1 1.1 0.1 1.6 0.5 0-0.7 0.2-1.3 0.7-1.8q0.7 0.7 0.7 1.7c0.3-0.1 0.5-0.2 0.7-0.3 0.3-0.1 0.6-0.1 0.9-0.2 0 0.6-0.2 1.2-0.6 1.6-0.4 0.5-0.9 0.7-1.4 0.9h1.3q-0.3 1-0.6 2.1h2.3v5.9h-0.7v-1.7zm3.5-2.4h-1.7v0.6h1.7z"/>
		<path id="Path 41523" class="s0" d="m18.1 10.8c-0.5-0.3-0.9-0.3-1.4-0.3q-1.9 0-3.7 0-0.4 0-0.8 0c-0.2 0.1-0.5 0.2-0.7 0.3q0-0.2-0.1-0.3-0.1-0.5-0.5-0.8c-0.1-0.1-0.1-0.2-0.1-0.3q0-1 0-2c0-1 0.7-1.8 1.7-1.8q2.3 0 4.5 0c1 0 1.8 0.8 1.8 1.7q0 1.1 0 2.1 0 0.2-0.2 0.3c-0.3 0.2-0.5 0.6-0.5 1.1z"/>
		<path id="Path 41524" class="s0" d="m9 3.8v0.8q0 2.4 0 4.8c0 0.1 0 0.2-0.1 0.3-0.3 0.1-0.5 0.4-0.6 0.7v-6.5h-2.1q0.2-2 0.4-3.9h4.2q0.1 1.9 0.3 3.8z"/>
		<path id="Path 41525" class="s0" d="m11.5 13.6h6.6v1q0 0.4 0 0.7c0 0.3-0.1 0.4-0.4 0.4q-2 0-3.9 0-1 0-1.9 0c-0.3 0-0.4-0.1-0.4-0.4q0-0.8 0-1.7z"/>
		<path id="Path 41526" class="s0" d="m18.1 12.9h-6.7c0.1-0.3 0-0.7 0.1-1 0.2-0.5 0.5-0.7 1-0.7q2.3 0 4.6 0c0.5 0 1 0.4 1 1q0 0.3 0 0.7z"/>
		<path id="Path 41527" class="s0" d="m10.8 12.9q0 1.1 0 2.2 0 0.6-0.7 0.6-0.3 0-0.5 0c-0.3 0-0.6-0.2-0.6-0.5q0-2.3 0-4.5c0-0.3 0.2-0.5 0.6-0.6q0.2 0 0.5 0c0.5 0 0.7 0.3 0.7 0.7q0 1.1 0 2.1z"/>
		<path id="Path 41528" class="s0" d="m18.8 12.9q0-1 0-2.1 0-0.6 0.6-0.7 0.3 0 0.5 0 0.7 0.1 0.6 0.7 0 1.9 0 3.9 0 0.2 0 0.5c0 0.3-0.2 0.5-0.5 0.5q-0.3 0-0.6 0-0.6 0-0.6-0.6 0-1.1 0-2.2z"/>
	</g>
</svg>