<svg version="1.2" xmlns="http://www.w3.org/2000/svg" viewBox="0 0 21 19" width="21" height="19">
	<title>Icon fa-solid-user</title>
	<style>
		.s0 { fill: #094e69 } 
		.s1 { fill: #094e69;stroke: #ffffff;stroke-miterlimit:100 } 
	</style>
	<path id="Icon fa-solid-user" class="s0" d="m7.9 9.5c2.1 0 3.9-1.8 3.9-4 0-2.1-1.8-3.9-3.9-3.9-2.2 0-4 1.8-4 3.9 0 2.2 1.8 4 4 4zm-1.4 1.4c-3.1 0-5.5 2.5-5.5 5.5 0 0.5 0.4 0.9 0.9 0.9h11.9c0.5 0 0.9-0.4 0.9-0.9 0-3-2.4-5.5-5.4-5.5z"/>
	<path id="Icon fa-solid-user" class="s1" d="m12.7 9.5c2.2 0 3.9-1.8 3.9-4 0-2.1-1.7-3.9-3.9-3.9-2.2 0-3.9 1.8-3.9 3.9 0 2.2 1.7 4 3.9 4zm-1.4 1.4c-3 0-5.5 2.5-5.5 5.5 0 0.5 0.4 0.9 0.9 0.9h12c0.5 0 0.9-0.4 0.9-0.9 0-3-2.5-5.5-5.5-5.5z"/>
</svg>